<?xml version="1.0" standalone="no"?>
<!DOCTYPE svg PUBLIC "-//W3C//DTD SVG 20010904//EN"
 "http://www.w3.org/TR/2001/REC-SVG-20010904/DTD/svg10.dtd">
<svg version="1.0" xmlns="http://www.w3.org/2000/svg"
 width="16.000000pt" height="16.000000pt" viewBox="0 0 16.000000 16.000000"
 preserveAspectRatio="xMidYMid meet">
<metadata>
Created by potrace 1.11, written by Peter Selinger 2001-2013
</metadata>
<g transform="translate(0.000000,16.000000) scale(0.001563,-0.001563)"
fill="#000000" stroke="none">
<path d="M0 5120 l0 -5120 5120 0 5120 0 0 5120 0 5120 -5120 0 -5120 0 0
-5120z m4789 4356 c68 -35 159 -159 302 -409 181 -315 273 -521 315 -699 13
-56 23 -79 38 -87 12 -6 82 -26 156 -45 160 -39 266 -80 373 -144 296 -176
565 -518 643 -818 20 -77 26 -125 27 -219 2 -141 -13 -231 -59 -375 -42 -130
-97 -226 -206 -355 -133 -158 -235 -236 -395 -301 -46 -18 -41 -3 -57 -166 -3
-25 1 -41 11 -50 8 -6 28 -35 44 -63 40 -70 40 -143 0 -207 -16 -25 -34 -49
-40 -52 -6 -4 11 -39 45 -91 81 -125 179 -318 214 -424 95 -284 17 -426 -232
-426 -73 0 -92 -5 -69 -20 5 -3 24 -42 42 -88 27 -69 32 -95 33 -167 0 -102
-14 -140 -78 -208 -65 -69 -207 -132 -298 -132 -41 0 -93 24 -112 51 -36 53
-7 188 48 224 24 16 28 16 52 0 24 -16 61 -82 50 -92 -2 -2 -14 0 -26 7 -26
14 -57 5 -65 -20 -9 -29 2 -40 38 -40 71 1 179 77 216 153 58 121 -13 230
-214 328 -169 82 -273 101 -677 119 -135 7 -250 17 -285 26 -105 27 -165 83
-206 190 -20 53 -22 77 -21 234 1 166 20 311 60 470 6 23 3 22 -34 -14 -34
-33 -40 -43 -35 -70 13 -80 -41 -233 -104 -298 -71 -73 -141 -69 -178 8 -29
61 -18 191 23 279 18 38 50 86 72 106 39 37 39 38 74 221 20 100 38 195 40
210 5 23 0 29 -39 47 -36 17 -62 45 -143 153 -151 204 -246 346 -287 427 -98
196 -125 505 -67 752 112 470 537 795 1137 869 49 6 91 12 92 14 2 2 -15 72
-38 157 -95 362 -144 533 -189 674 -85 262 -94 320 -54 360 19 19 28 19 63 1z
m201 -4906 c320 -18 411 -35 557 -107 154 -75 206 -141 171 -218 -14 -30 -24
-32 -40 -4 -25 40 -75 62 -131 56 -46 -4 -56 -10 -93 -50 -31 -34 -46 -64 -59
-111 -34 -126 -2 -222 90 -266 40 -20 58 -22 138 -18 194 10 358 118 418 277
24 64 29 181 11 245 -6 22 -9 42 -7 44 2 3 75 7 162 10 118 3 191 0 288 -13
601 -81 972 -332 1085 -735 77 -274 -5 -652 -180 -830 -69 -69 -190 -133 -295
-155 -124 -26 -314 -18 -491 20 l-31 7 -6 -189 c-12 -404 -116 -663 -356 -884
-142 -132 -310 -222 -616 -329 -259 -91 -279 -102 -425 -244 -205 -200 -358
-284 -535 -294 -113 -6 -184 9 -283 58 -98 49 -194 129 -274 226 -144 176
-167 202 -232 256 -142 119 -295 177 -496 185 -145 6 -264 -11 -400 -56 -47
-16 -87 -27 -89 -26 -2 2 57 33 130 68 538 259 853 288 1046 98 50 -49 87
-102 194 -274 74 -120 157 -209 223 -242 51 -25 56 -25 89 -11 42 17 78 79 96
166 30 137 30 507 0 684 -25 154 -96 297 -187 377 -87 77 -164 106 -313 119
-59 5 -136 16 -171 25 -215 56 -353 204 -394 425 -20 104 -14 366 10 475 60
276 231 533 511 773 120 103 321 241 457 316 76 41 88 52 99 84 22 70 25 72
87 72 31 0 140 -5 242 -10z"/>
<path d="M4891 6350 c-17 -17 -35 -48 -41 -68 -12 -44 -25 -182 -17 -182 3 0
11 24 17 53 22 108 76 157 171 157 55 0 135 -22 197 -54 50 -26 37 -10 -28 34
-93 63 -157 90 -217 90 -44 0 -56 -4 -82 -30z"/>
<path d="M5819 6241 c-52 -20 -162 -81 -157 -87 2 -1 44 14 93 34 78 32 101
37 172 37 77 0 81 1 66 18 -21 23 -112 22 -174 -2z"/>
<path d="M5010 6152 c-39 -40 -55 -100 -54 -212 0 -106 17 -163 73 -244 90
-130 201 -140 247 -21 22 60 15 222 -15 316 -51 160 -173 238 -251 161z"/>
<path d="M5694 5951 c-69 -31 -134 -159 -137 -268 -1 -42 3 -57 23 -78 27 -28
49 -31 88 -11 36 19 95 82 118 126 24 46 27 202 4 224 -26 24 -53 26 -96 7z"/>
<path d="M4208 5493 c-61 -70 -73 -196 -22 -229 20 -14 26 -14 51 -1 41 21 74
87 81 159 l5 61 -28 -7 c-21 -5 -33 -2 -50 14 -21 19 -22 19 -37 3z"/>
<path d="M5152 5301 c-124 -31 -81 -131 92 -216 98 -49 178 -69 235 -59 107
18 259 88 295 138 26 35 40 82 27 90 -4 3 -33 -3 -64 -14 -84 -30 -202 -27
-292 6 -154 56 -229 70 -293 55z"/>
</g>
</svg>
