<svg xmlns="http://www.w3.org/2000/svg" xmlns:xlink="http://www.w3.org/1999/xlink" viewBox="0 0 145 50"><defs><style>.cls-1{fill:none;}.cls-1,.cls-2{clip-rule:evenodd;}.cls-3{clip-path:url(#clip-path);}.cls-4{fill:#000;}.cls-5{clip-path:url(#clip-path-2);}.cls-6{fill-rule:evenodd;}.cls-7{clip-path:url(#clip-path-3);}.cls-8{clip-path:url(#clip-path-4);}.cls-9{clip-path:url(#clip-path-5);}.cls-10{clip-path:url(#clip-path-6);}.cls-11{clip-path:url(#clip-path-7);}.cls-12{clip-path:url(#clip-path-8);}.cls-13{clip-path:url(#clip-path-9);}.cls-14{clip-path:url(#clip-path-10);}.cls-15{clip-path:url(#clip-path-11);}.cls-16{clip-path:url(#clip-path-12);}.cls-17{clip-path:url(#clip-path-13);}.cls-18{clip-path:url(#clip-path-14);}.cls-19{clip-path:url(#clip-path-15);}.cls-20{clip-path:url(#clip-path-16);}.cls-21{clip-path:url(#clip-path-17);}.cls-22{clip-path:url(#clip-path-18);}.cls-23{clip-path:url(#clip-path-19);}.cls-24{clip-path:url(#clip-path-20);}.cls-25{clip-path:url(#clip-path-21);}.cls-26{clip-path:url(#clip-path-22);}.cls-27{clip-path:url(#clip-path-23);}.cls-28{clip-path:url(#clip-path-24);}.cls-29{clip-path:url(#clip-path-25);}</style><clipPath id="clip-path"><path class="cls-1" d="M135.2,45H9.73A4.74,4.74,0,0,1,5,40.27V9.73A4.73,4.73,0,0,1,9.73,5H135.2A4.8,4.8,0,0,1,140,9.73V40.27A4.8,4.8,0,0,1,135.2,45Z"/></clipPath><clipPath id="clip-path-2"><path class="cls-1" d="M139,40.27a3.83,3.83,0,0,1-3.83,3.83H9.73a3.83,3.83,0,0,1-3.84-3.83V9.72A3.84,3.84,0,0,1,9.73,5.89H135.2A3.83,3.83,0,0,1,139,9.72Z"/></clipPath><clipPath id="clip-path-3"><path class="cls-2" d="M35.13,24.78a5.8,5.8,0,0,1,2.76-4.86,5.94,5.94,0,0,0-4.68-2.53c-2-.21-3.88,1.18-4.88,1.18s-2.57-1.16-4.23-1.12a6.23,6.23,0,0,0-5.24,3.2c-2.27,3.92-.58,9.69,1.6,12.86,1.09,1.55,2.36,3.29,4,3.23s2.23-1,4.19-1,2.51,1,4.21,1,2.84-1.56,3.89-3.13a12.83,12.83,0,0,0,1.78-3.62A5.6,5.6,0,0,1,35.13,24.78Z"/></clipPath><clipPath id="clip-path-4"><path class="cls-2" d="M31.93,15.31a5.71,5.71,0,0,0,1.31-4.09,5.81,5.81,0,0,0-3.76,1.94,5.43,5.43,0,0,0-1.34,3.94A4.8,4.8,0,0,0,31.93,15.31Z"/></clipPath><clipPath id="clip-path-5"><path class="cls-2" d="M54.76,31l-1.12-3.48Q53.45,26.95,53,25h0q-.2.85-.63,2.51L51.18,31Zm3.89,5.55H56.37L55.13,32.6H50.81L49.62,36.5H47.41L51.69,23.2h2.65Z"/></clipPath><clipPath id="clip-path-6"><path class="cls-2" d="M67.49,31.67a4,4,0,0,0-.63-2.31A2.18,2.18,0,0,0,65,28.41a2.22,2.22,0,0,0-1.43.52,2.43,2.43,0,0,0-.84,1.37,2.79,2.79,0,0,0-.1.65v1.6a2.56,2.56,0,0,0,.64,1.77,2.13,2.13,0,0,0,1.67.72,2.18,2.18,0,0,0,1.88-.93A4.08,4.08,0,0,0,67.49,31.67Zm2.17-.08a5.45,5.45,0,0,1-1.32,3.87,3.87,3.87,0,0,1-2.94,1.26,2.94,2.94,0,0,1-2.72-1.36h0v5.05H60.5V30.07q0-1.54-.08-3.16H62.3l.12,1.52h0a3.79,3.79,0,0,1,6.07-.38A5.29,5.29,0,0,1,69.66,31.59Z"/></clipPath><clipPath id="clip-path-7"><path class="cls-2" d="M78.53,31.67a4,4,0,0,0-.63-2.31A2.18,2.18,0,0,0,76,28.41a2.22,2.22,0,0,0-1.43.52,2.42,2.42,0,0,0-.84,1.37,2.85,2.85,0,0,0-.1.65v1.6a2.57,2.57,0,0,0,.64,1.77A2.13,2.13,0,0,0,76,35a2.18,2.18,0,0,0,1.88-.93A4.08,4.08,0,0,0,78.53,31.67Zm2.17-.08a5.45,5.45,0,0,1-1.32,3.87,3.86,3.86,0,0,1-2.94,1.26,2.94,2.94,0,0,1-2.72-1.36h0v5.05H71.54V30.07q0-1.54-.08-3.16h1.88l.12,1.52h0a3.79,3.79,0,0,1,6.07-.38A5.3,5.3,0,0,1,80.7,31.59Z"/></clipPath><clipPath id="clip-path-8"><path class="cls-2" d="M93,32.77a3.55,3.55,0,0,1-1.18,2.76,5.24,5.24,0,0,1-3.62,1.16,6.35,6.35,0,0,1-3.45-.83l.49-1.78a5.84,5.84,0,0,0,3.08.85,2.91,2.91,0,0,0,1.88-.54,1.78,1.78,0,0,0,.67-1.45,1.85,1.85,0,0,0-.55-1.36,5.14,5.14,0,0,0-1.84-1Q85,29.25,85,26.74A3.38,3.38,0,0,1,86.25,24a4.83,4.83,0,0,1,3.26-1,6.46,6.46,0,0,1,3,.63L92,25.37a5.24,5.24,0,0,0-2.55-.61,2.58,2.58,0,0,0-1.76.55,1.58,1.58,0,0,0-.53,1.2,1.63,1.63,0,0,0,.61,1.3,6.91,6.91,0,0,0,1.94,1,6.57,6.57,0,0,1,2.53,1.62A3.38,3.38,0,0,1,93,32.77Z"/></clipPath><clipPath id="clip-path-9"><path class="cls-2" d="M100.09,28.51H97.74v4.66q0,1.78,1.24,1.78a3.79,3.79,0,0,0,.95-.1l.06,1.62a4.83,4.83,0,0,1-1.66.24,2.56,2.56,0,0,1-2-.77,3.78,3.78,0,0,1-.71-2.59V28.51h-1.4v-1.6h1.4V25.15l2.09-.63v2.39h2.35Z"/></clipPath><clipPath id="clip-path-10"><path class="cls-2" d="M108.48,31.7a4.32,4.32,0,0,0-.57-2.28A2.11,2.11,0,0,0,106,28.27a2.14,2.14,0,0,0-2,1.15,4.4,4.4,0,0,0-.57,2.32A4.31,4.31,0,0,0,104,34a2.18,2.18,0,0,0,3.85,0A4.33,4.33,0,0,0,108.48,31.7Zm2.21-.07a5.26,5.26,0,0,1-1.26,3.63,4.51,4.51,0,0,1-3.52,1.46,4.29,4.29,0,0,1-3.37-1.4,5.1,5.1,0,0,1-1.25-3.53,5.21,5.21,0,0,1,1.29-3.65,4.47,4.47,0,0,1,3.48-1.42,4.38,4.38,0,0,1,3.4,1.4A5,5,0,0,1,110.69,31.63Z"/></clipPath><clipPath id="clip-path-11"><path class="cls-2" d="M117.62,28.78a3.7,3.7,0,0,0-.67-.06,2,2,0,0,0-1.74.85,3.19,3.19,0,0,0-.53,1.89v5h-2.13l0-6.57q0-1.66-.08-3h1.86l.08,1.84h.06a3.28,3.28,0,0,1,1.07-1.52,2.58,2.58,0,0,1,1.54-.51,3.42,3.42,0,0,1,.53,0Z"/></clipPath><clipPath id="clip-path-12"><path class="cls-2" d="M125.12,30.7a2.9,2.9,0,0,0-.41-1.64,1.86,1.86,0,0,0-1.7-.89,2,2,0,0,0-1.7.87,3.18,3.18,0,0,0-.63,1.66h4.44Zm2,.55a5,5,0,0,1-.08,1h-6.4a2.78,2.78,0,0,0,.93,2.17,3.17,3.17,0,0,0,2.09.67,7.07,7.07,0,0,0,2.59-.45l.33,1.48a8,8,0,0,1-3.22.59,4.66,4.66,0,0,1-3.51-1.31,4.85,4.85,0,0,1-1.27-3.52,5.5,5.5,0,0,1,1.19-3.61,4.09,4.09,0,0,1,3.35-1.54,3.58,3.58,0,0,1,3.14,1.54A5.19,5.19,0,0,1,127.16,31.25Z"/></clipPath><clipPath id="clip-path-13"><path class="cls-2" d="M52.94,15a2.39,2.39,0,0,0-.61-1.76,2.39,2.39,0,0,0-1.77-.61,4.44,4.44,0,0,0-.84.07v4.89a5.53,5.53,0,0,0,.71,0A2.48,2.48,0,0,0,52.29,17,2.68,2.68,0,0,0,52.94,15ZM54,15A3.28,3.28,0,0,1,53,17.67a4.21,4.21,0,0,1-2.78.82,12.9,12.9,0,0,1-1.53-.08V12a11.31,11.31,0,0,1,1.81-.14,3.89,3.89,0,0,1,2.59.75A3,3,0,0,1,54,15Z"/></clipPath><clipPath id="clip-path-14"><path class="cls-2" d="M58.82,16.07A2.13,2.13,0,0,0,58.54,15a1,1,0,0,0-.94-.56,1.05,1.05,0,0,0-1,.56,2.16,2.16,0,0,0-.28,1.14,2.13,2.13,0,0,0,.28,1.12,1.06,1.06,0,0,0,1,.56,1,1,0,0,0,.94-.57A2.12,2.12,0,0,0,58.82,16.07Zm1.09,0a2.59,2.59,0,0,1-.62,1.78,2.22,2.22,0,0,1-1.73.72,2.11,2.11,0,0,1-1.65-.69,2.51,2.51,0,0,1-.62-1.74,2.56,2.56,0,0,1,.63-1.79,2.2,2.2,0,0,1,1.71-.7,2.16,2.16,0,0,1,1.67.69A2.49,2.49,0,0,1,59.91,16Z"/></clipPath><clipPath id="clip-path-15"><path class="cls-2" d="M67.76,13.72l-1.47,4.71h-1l-.61-2a15.32,15.32,0,0,1-.38-1.52h0a11.15,11.15,0,0,1-.38,1.52l-.65,2h-1l-1.39-4.71H62L62.54,16q.19.8.32,1.51h0q.12-.59.39-1.5l.67-2.25h.85l.64,2.2q.23.81.38,1.55h0a14.83,14.83,0,0,1,.32-1.55l.57-2.2h1Z"/></clipPath><clipPath id="clip-path-16"><path class="cls-2" d="M73.2,18.43h-1v-2.7q0-1.25-1-1.25a1,1,0,0,0-.76.34,1.22,1.22,0,0,0-.29.81v2.8h-1V15.07q0-.62,0-1.35H70l0,.74h0a1.51,1.51,0,0,1,.54-.57,1.77,1.77,0,0,1,.95-.26,1.5,1.5,0,0,1,1.1.43,2.07,2.07,0,0,1,.54,1.56Z"/></clipPath><clipPath id="clip-path-17"><rect x="75.04" y="11.56" width="1.05" height="6.88"/></clipPath><clipPath id="clip-path-18"><path class="cls-2" d="M81.17,16.07A2.13,2.13,0,0,0,80.89,15a1,1,0,0,0-.94-.56A1,1,0,0,0,79,15a2.16,2.16,0,0,0-.28,1.14A2.13,2.13,0,0,0,79,17.21a1.06,1.06,0,0,0,1,.56,1,1,0,0,0,.94-.57A2.11,2.11,0,0,0,81.17,16.07Zm1.09,0a2.59,2.59,0,0,1-.62,1.78,2.22,2.22,0,0,1-1.73.72,2.1,2.1,0,0,1-1.65-.69,2.51,2.51,0,0,1-.61-1.74,2.56,2.56,0,0,1,.64-1.79,2.2,2.2,0,0,1,1.71-.7,2.16,2.16,0,0,1,1.67.69A2.49,2.49,0,0,1,82.26,16Z"/></clipPath><clipPath id="clip-path-19"><path class="cls-2" d="M86.24,16.81v-.73q-1.73,0-1.73.95a.71.71,0,0,0,.2.55.73.73,0,0,0,.51.18,1.06,1.06,0,0,0,.64-.22.89.89,0,0,0,.38-.74Zm1.09,1.62h-.94l-.08-.54h0a1.61,1.61,0,0,1-1.38.65,1.42,1.42,0,0,1-1.08-.43,1.34,1.34,0,0,1-.37-1,1.46,1.46,0,0,1,.72-1.32,3.75,3.75,0,0,1,2-.45V15.3q0-.93-1-.93a2.19,2.19,0,0,0-1.23.35L83.79,14a3,3,0,0,1,1.62-.41q1.85,0,1.85,2v1.74A7.36,7.36,0,0,0,87.33,18.43Z"/></clipPath><clipPath id="clip-path-20"><path class="cls-2" d="M92.2,16.44v-.79a1.54,1.54,0,0,0,0-.33,1.19,1.19,0,0,0-.38-.64,1,1,0,0,0-.7-.26,1.08,1.08,0,0,0-.92.47,2,2,0,0,0-.34,1.19,1.86,1.86,0,0,0,.32,1.14,1.08,1.08,0,0,0,.92.46,1,1,0,0,0,.83-.39A1.29,1.29,0,0,0,92.2,16.44Zm1.09,2h-.93l0-.76h0a1.57,1.57,0,0,1-1.51.86,1.77,1.77,0,0,1-1.42-.67,2.61,2.61,0,0,1-.56-1.74,2.73,2.73,0,0,1,.61-1.85,1.88,1.88,0,0,1,1.45-.66,1.41,1.41,0,0,1,1.33.64h0V11.56h1v5.61Q93.25,17.85,93.29,18.43Z"/></clipPath><clipPath id="clip-path-21"><path class="cls-2" d="M101.16,16.07a2.13,2.13,0,0,0-.28-1.12,1,1,0,0,0-.94-.56A1.05,1.05,0,0,0,99,15a2.16,2.16,0,0,0-.28,1.14A2.13,2.13,0,0,0,99,17.21a1.07,1.07,0,0,0,1.89,0A2.13,2.13,0,0,0,101.16,16.07Zm1.09,0a2.59,2.59,0,0,1-.62,1.78,2.21,2.21,0,0,1-1.73.72,2.11,2.11,0,0,1-1.65-.69,2.51,2.51,0,0,1-.62-1.74,2.56,2.56,0,0,1,.64-1.79,2.2,2.2,0,0,1,1.71-.7,2.15,2.15,0,0,1,1.67.69A2.49,2.49,0,0,1,102.25,16Z"/></clipPath><clipPath id="clip-path-22"><path class="cls-2" d="M107.88,18.43h-1v-2.7q0-1.25-1-1.25a.94.94,0,0,0-.76.34,1.21,1.21,0,0,0-.29.81v2.8h-1V15.07q0-.62,0-1.35h.92l0,.74h0a1.53,1.53,0,0,1,.54-.57,1.77,1.77,0,0,1,1-.26,1.5,1.5,0,0,1,1.1.43,2.07,2.07,0,0,1,.54,1.56Z"/></clipPath><clipPath id="clip-path-23"><path class="cls-2" d="M114.94,14.5h-1.15v2.29c0,.58.21.87.61.87a1.85,1.85,0,0,0,.47,0l0,.8a2.35,2.35,0,0,1-.81.12,1.25,1.25,0,0,1-1-.38,1.85,1.85,0,0,1-.35-1.27V14.5h-.69v-.78h.69v-.86l1-.31v1.17h1.15v.79Z"/></clipPath><clipPath id="clip-path-24"><path class="cls-2" d="M120.48,18.43h-1V15.75q0-1.27-.95-1.27a1,1,0,0,0-1,.73,1.32,1.32,0,0,0,0,.38v2.83h-1V11.56h1V14.4h0a1.58,1.58,0,0,1,1.42-.77A1.46,1.46,0,0,1,120,14a2.15,2.15,0,0,1,.53,1.58Z"/></clipPath><clipPath id="clip-path-25"><path class="cls-2" d="M125.21,15.58a1.41,1.41,0,0,0-.2-.81.92.92,0,0,0-.83-.44,1,1,0,0,0-.83.43,1.59,1.59,0,0,0-.31.82Zm1,.27a2.53,2.53,0,0,1,0,.47H123a1.37,1.37,0,0,0,.46,1.07,1.56,1.56,0,0,0,1,.33,3.47,3.47,0,0,0,1.27-.22l.16.73a4,4,0,0,1-1.58.29,2.28,2.28,0,0,1-1.72-.65,2.38,2.38,0,0,1-.62-1.73,2.7,2.7,0,0,1,.58-1.77,2,2,0,0,1,1.65-.76,1.75,1.75,0,0,1,1.54.76A2.52,2.52,0,0,1,126.21,15.85Z"/></clipPath></defs><title>head-appstore-button</title><g id="Layer_2" data-name="Layer 2"><g id="Layer_1-2" data-name="Layer 1" fill="#ffffff"><g class="cls-3"><rect class="cls-4" width="145" height="50"/></g><g class="cls-5"><rect class="cls-4" x="0.89" y="0.89" width="143.14" height="48.21"/></g><path class="cls-6" d="M35.13,24.78a5.8,5.8,0,0,1,2.76-4.86,5.94,5.94,0,0,0-4.68-2.53c-2-.21-3.88,1.18-4.88,1.18s-2.57-1.16-4.23-1.12a6.23,6.23,0,0,0-5.24,3.2c-2.27,3.92-.58,9.69,1.6,12.86,1.09,1.55,2.36,3.29,4,3.23s2.23-1,4.19-1,2.51,1,4.21,1,2.84-1.56,3.89-3.13a12.83,12.83,0,0,0,1.78-3.62A5.6,5.6,0,0,1,35.13,24.78Z"/><g class="cls-7"><rect x="12.79" y="12.37" width="30.76" height="29.36"/></g><path class="cls-6" d="M31.93,15.31a5.71,5.71,0,0,0,1.31-4.09,5.81,5.81,0,0,0-3.76,1.94,5.43,5.43,0,0,0-1.34,3.94A4.8,4.8,0,0,0,31.93,15.31Z"/><g class="cls-8"><rect x="23.11" y="6.22" width="15.16" height="15.89"/></g><path class="cls-6" d="M54.76,31l-1.12-3.48Q53.45,26.95,53,25h0q-.2.85-.63,2.51L51.18,31Zm3.89,5.55H56.37L55.13,32.6H50.81L49.62,36.5H47.41L51.69,23.2h2.65Z"/><g class="cls-9"><rect x="42.41" y="18.2" width="21.24" height="23.31"/></g><path class="cls-6" d="M67.49,31.67a4,4,0,0,0-.63-2.31A2.18,2.18,0,0,0,65,28.41a2.22,2.22,0,0,0-1.43.52,2.43,2.43,0,0,0-.84,1.37,2.79,2.79,0,0,0-.1.65v1.6a2.56,2.56,0,0,0,.64,1.77,2.13,2.13,0,0,0,1.67.72,2.18,2.18,0,0,0,1.88-.93A4.08,4.08,0,0,0,67.49,31.67Zm2.17-.08a5.45,5.45,0,0,1-1.32,3.87,3.87,3.87,0,0,1-2.94,1.26,2.94,2.94,0,0,1-2.72-1.36h0v5.05H60.5V30.07q0-1.54-.08-3.16H62.3l.12,1.52h0a3.79,3.79,0,0,1,6.07-.38A5.29,5.29,0,0,1,69.66,31.59Z"/><g class="cls-10"><rect x="55.42" y="21.71" width="19.24" height="23.7"/></g><path class="cls-6" d="M78.53,31.67a4,4,0,0,0-.63-2.31A2.18,2.18,0,0,0,76,28.41a2.22,2.22,0,0,0-1.43.52,2.42,2.42,0,0,0-.84,1.37,2.85,2.85,0,0,0-.1.65v1.6a2.57,2.57,0,0,0,.64,1.77A2.13,2.13,0,0,0,76,35a2.18,2.18,0,0,0,1.88-.93A4.08,4.08,0,0,0,78.53,31.67Zm2.17-.08a5.45,5.45,0,0,1-1.32,3.87,3.86,3.86,0,0,1-2.94,1.26,2.94,2.94,0,0,1-2.72-1.36h0v5.05H71.54V30.07q0-1.54-.08-3.16h1.88l.12,1.52h0a3.79,3.79,0,0,1,6.07-.38A5.3,5.3,0,0,1,80.7,31.59Z"/><g class="cls-11"><rect x="66.46" y="21.71" width="19.24" height="23.7"/></g><path class="cls-6" d="M93,32.77a3.55,3.55,0,0,1-1.18,2.76,5.24,5.24,0,0,1-3.62,1.16,6.35,6.35,0,0,1-3.45-.83l.49-1.78a5.84,5.84,0,0,0,3.08.85,2.91,2.91,0,0,0,1.88-.54,1.78,1.78,0,0,0,.67-1.45,1.85,1.85,0,0,0-.55-1.36,5.14,5.14,0,0,0-1.84-1Q85,29.25,85,26.74A3.38,3.38,0,0,1,86.25,24a4.83,4.83,0,0,1,3.26-1,6.46,6.46,0,0,1,3,.63L92,25.37a5.24,5.24,0,0,0-2.55-.61,2.58,2.58,0,0,0-1.76.55,1.58,1.58,0,0,0-.53,1.2,1.63,1.63,0,0,0,.61,1.3,6.91,6.91,0,0,0,1.94,1,6.57,6.57,0,0,1,2.53,1.62A3.38,3.38,0,0,1,93,32.77Z"/><g class="cls-12"><rect x="79.78" y="18" width="18.26" height="23.7"/></g><path class="cls-6" d="M100.09,28.51H97.74v4.66q0,1.78,1.24,1.78a3.79,3.79,0,0,0,.95-.1l.06,1.62a4.83,4.83,0,0,1-1.66.24,2.56,2.56,0,0,1-2-.77,3.78,3.78,0,0,1-.71-2.59V28.51h-1.4v-1.6h1.4V25.15l2.09-.63v2.39h2.35Z"/><g class="cls-13"><rect x="89.24" y="19.52" width="15.84" height="22.18"/></g><path class="cls-6" d="M108.48,31.7a4.32,4.32,0,0,0-.57-2.28A2.11,2.11,0,0,0,106,28.27a2.14,2.14,0,0,0-2,1.15,4.4,4.4,0,0,0-.57,2.32A4.31,4.31,0,0,0,104,34a2.18,2.18,0,0,0,3.85,0A4.33,4.33,0,0,0,108.48,31.7Zm2.21-.07a5.26,5.26,0,0,1-1.26,3.63,4.51,4.51,0,0,1-3.52,1.46,4.29,4.29,0,0,1-3.37-1.4,5.1,5.1,0,0,1-1.25-3.53,5.21,5.21,0,0,1,1.29-3.65,4.47,4.47,0,0,1,3.48-1.42,4.38,4.38,0,0,1,3.4,1.4A5,5,0,0,1,110.69,31.63Z"/><g class="cls-14"><rect x="96.29" y="21.71" width="19.4" height="20.01"/></g><path class="cls-6" d="M117.62,28.78a3.7,3.7,0,0,0-.67-.06,2,2,0,0,0-1.74.85,3.19,3.19,0,0,0-.53,1.89v5h-2.13l0-6.57q0-1.66-.08-3h1.86l.08,1.84h.06a3.28,3.28,0,0,1,1.07-1.52,2.58,2.58,0,0,1,1.54-.51,3.42,3.42,0,0,1,.53,0Z"/><g class="cls-15"><rect x="107.49" y="21.71" width="15.13" height="19.79"/></g><path class="cls-6" d="M125.12,30.7a2.9,2.9,0,0,0-.41-1.64,1.86,1.86,0,0,0-1.7-.89,2,2,0,0,0-1.7.87,3.18,3.18,0,0,0-.63,1.66h4.44Zm2,.55a5,5,0,0,1-.08,1h-6.4a2.78,2.78,0,0,0,.93,2.17,3.17,3.17,0,0,0,2.09.67,7.07,7.07,0,0,0,2.59-.45l.33,1.48a8,8,0,0,1-3.22.59,4.66,4.66,0,0,1-3.51-1.31,4.85,4.85,0,0,1-1.27-3.52,5.5,5.5,0,0,1,1.19-3.61,4.09,4.09,0,0,1,3.35-1.54,3.58,3.58,0,0,1,3.14,1.54A5.19,5.19,0,0,1,127.16,31.25Z"/><g class="cls-16"><rect x="113.63" y="21.69" width="18.53" height="19.99"/></g><path class="cls-6" d="M52.94,15a2.39,2.39,0,0,0-.61-1.76,2.39,2.39,0,0,0-1.77-.61,4.44,4.44,0,0,0-.84.07v4.89a5.53,5.53,0,0,0,.71,0A2.48,2.48,0,0,0,52.29,17,2.68,2.68,0,0,0,52.94,15ZM54,15A3.28,3.28,0,0,1,53,17.67a4.21,4.21,0,0,1-2.78.82,12.9,12.9,0,0,1-1.53-.08V12a11.31,11.31,0,0,1,1.81-.14,3.89,3.89,0,0,1,2.59.75A3,3,0,0,1,54,15Z"/><g class="cls-17"><rect x="43.68" y="6.85" width="15.37" height="16.64"/></g><path class="cls-6" d="M58.82,16.07A2.13,2.13,0,0,0,58.54,15a1,1,0,0,0-.94-.56,1.05,1.05,0,0,0-1,.56,2.16,2.16,0,0,0-.28,1.14,2.13,2.13,0,0,0,.28,1.12,1.06,1.06,0,0,0,1,.56,1,1,0,0,0,.94-.57A2.12,2.12,0,0,0,58.82,16.07Zm1.09,0a2.59,2.59,0,0,1-.62,1.78,2.22,2.22,0,0,1-1.73.72,2.11,2.11,0,0,1-1.65-.69,2.51,2.51,0,0,1-.62-1.74,2.56,2.56,0,0,1,.63-1.79,2.2,2.2,0,0,1,1.71-.7,2.16,2.16,0,0,1,1.67.69A2.49,2.49,0,0,1,59.91,16Z"/><g class="cls-18"><rect x="50.29" y="8.62" width="14.62" height="14.92"/></g><path class="cls-6" d="M67.76,13.72l-1.47,4.71h-1l-.61-2a15.32,15.32,0,0,1-.38-1.52h0a11.15,11.15,0,0,1-.38,1.52l-.65,2h-1l-1.39-4.71H62L62.54,16q.19.8.32,1.51h0q.12-.59.39-1.5l.67-2.25h.85l.64,2.2q.23.81.38,1.55h0a14.83,14.83,0,0,1,.32-1.55l.57-2.2h1Z"/><g class="cls-19"><rect x="55.94" y="8.72" width="16.83" height="14.71"/></g><path class="cls-6" d="M73.2,18.43h-1v-2.7q0-1.25-1-1.25a1,1,0,0,0-.76.34,1.22,1.22,0,0,0-.29.81v2.8h-1V15.07q0-.62,0-1.35H70l0,.74h0a1.51,1.51,0,0,1,.54-.57,1.77,1.77,0,0,1,.95-.26,1.5,1.5,0,0,1,1.1.43,2.07,2.07,0,0,1,.54,1.56Z"/><g class="cls-20"><rect x="64.07" y="8.62" width="14.13" height="14.81"/></g><rect x="75.04" y="11.56" width="1.05" height="6.88"/><g class="cls-21"><rect x="70.04" y="6.56" width="11.05" height="16.88"/></g><path class="cls-6" d="M81.17,16.07A2.13,2.13,0,0,0,80.89,15a1,1,0,0,0-.94-.56A1,1,0,0,0,79,15a2.16,2.16,0,0,0-.28,1.14A2.13,2.13,0,0,0,79,17.21a1.06,1.06,0,0,0,1,.56,1,1,0,0,0,.94-.57A2.11,2.11,0,0,0,81.17,16.07Zm1.09,0a2.59,2.59,0,0,1-.62,1.78,2.22,2.22,0,0,1-1.73.72,2.1,2.1,0,0,1-1.65-.69,2.51,2.51,0,0,1-.61-1.74,2.56,2.56,0,0,1,.64-1.79,2.2,2.2,0,0,1,1.71-.7,2.16,2.16,0,0,1,1.67.69A2.49,2.49,0,0,1,82.26,16Z"/><g class="cls-22"><rect x="72.64" y="8.62" width="14.62" height="14.92"/></g><path class="cls-6" d="M86.24,16.81v-.73q-1.73,0-1.73.95a.71.71,0,0,0,.2.55.73.73,0,0,0,.51.18,1.06,1.06,0,0,0,.64-.22.89.89,0,0,0,.38-.74Zm1.09,1.62h-.94l-.08-.54h0a1.61,1.61,0,0,1-1.38.65,1.42,1.42,0,0,1-1.08-.43,1.34,1.34,0,0,1-.37-1,1.46,1.46,0,0,1,.72-1.32,3.75,3.75,0,0,1,2-.45V15.3q0-.93-1-.93a2.19,2.19,0,0,0-1.23.35L83.79,14a3,3,0,0,1,1.62-.41q1.85,0,1.85,2v1.74A7.36,7.36,0,0,0,87.33,18.43Z"/><g class="cls-23"><rect x="78.46" y="8.62" width="13.87" height="14.92"/></g><path class="cls-6" d="M92.2,16.44v-.79a1.54,1.54,0,0,0,0-.33,1.19,1.19,0,0,0-.38-.64,1,1,0,0,0-.7-.26,1.08,1.08,0,0,0-.92.47,2,2,0,0,0-.34,1.19,1.86,1.86,0,0,0,.32,1.14,1.08,1.08,0,0,0,.92.46,1,1,0,0,0,.83-.39A1.29,1.29,0,0,0,92.2,16.44Zm1.09,2h-.93l0-.76h0a1.57,1.57,0,0,1-1.51.86,1.77,1.77,0,0,1-1.42-.67,2.61,2.61,0,0,1-.56-1.74,2.73,2.73,0,0,1,.61-1.85,1.88,1.88,0,0,1,1.45-.66,1.41,1.41,0,0,1,1.33.64h0V11.56h1v5.61Q93.25,17.85,93.29,18.43Z"/><g class="cls-24"><rect x="83.79" y="6.56" width="14.5" height="16.98"/></g><path class="cls-6" d="M101.16,16.07a2.13,2.13,0,0,0-.28-1.12,1,1,0,0,0-.94-.56A1.05,1.05,0,0,0,99,15a2.16,2.16,0,0,0-.28,1.14A2.13,2.13,0,0,0,99,17.21a1.07,1.07,0,0,0,1.89,0A2.13,2.13,0,0,0,101.16,16.07Zm1.09,0a2.59,2.59,0,0,1-.62,1.78,2.21,2.21,0,0,1-1.73.72,2.11,2.11,0,0,1-1.65-.69,2.51,2.51,0,0,1-.62-1.74,2.56,2.56,0,0,1,.64-1.79,2.2,2.2,0,0,1,1.71-.7,2.15,2.15,0,0,1,1.67.69A2.49,2.49,0,0,1,102.25,16Z"/><g class="cls-25"><rect x="92.63" y="8.62" width="14.62" height="14.92"/></g><path class="cls-6" d="M107.88,18.43h-1v-2.7q0-1.25-1-1.25a.94.94,0,0,0-.76.34,1.21,1.21,0,0,0-.29.81v2.8h-1V15.07q0-.62,0-1.35h.92l0,.74h0a1.53,1.53,0,0,1,.54-.57,1.77,1.77,0,0,1,1-.26,1.5,1.5,0,0,1,1.1.43,2.07,2.07,0,0,1,.54,1.56Z"/><g class="cls-26"><rect x="98.75" y="8.62" width="14.13" height="14.81"/></g><path class="cls-6" d="M114.94,14.5h-1.15v2.29c0,.58.21.87.61.87a1.85,1.85,0,0,0,.47,0l0,.8a2.35,2.35,0,0,1-.81.12,1.25,1.25,0,0,1-1-.38,1.85,1.85,0,0,1-.35-1.27V14.5h-.69v-.78h.69v-.86l1-.31v1.17h1.15v.79Z"/><g class="cls-27"><rect x="107.07" y="7.55" width="12.87" height="15.98"/></g><path class="cls-6" d="M120.48,18.43h-1V15.75q0-1.27-.95-1.27a1,1,0,0,0-1,.73,1.32,1.32,0,0,0,0,.38v2.83h-1V11.56h1V14.4h0a1.58,1.58,0,0,1,1.42-.77A1.46,1.46,0,0,1,120,14a2.15,2.15,0,0,1,.53,1.58Z"/><g class="cls-28"><rect x="111.39" y="6.56" width="14.09" height="16.88"/></g><path class="cls-6" d="M125.21,15.58a1.41,1.41,0,0,0-.2-.81.92.92,0,0,0-.83-.44,1,1,0,0,0-.83.43,1.59,1.59,0,0,0-.31.82Zm1,.27a2.53,2.53,0,0,1,0,.47H123a1.37,1.37,0,0,0,.46,1.07,1.56,1.56,0,0,0,1,.33,3.47,3.47,0,0,0,1.27-.22l.16.73a4,4,0,0,1-1.58.29,2.28,2.28,0,0,1-1.72-.65,2.38,2.38,0,0,1-.62-1.73,2.7,2.7,0,0,1,.58-1.77,2,2,0,0,1,1.65-.76,1.75,1.75,0,0,1,1.54.76A2.52,2.52,0,0,1,126.21,15.85Z"/><g class="cls-29"><rect x="117.02" y="8.61" width="14.19" height="14.91"/></g></g></g></svg>