<?xml version="1.0" encoding="UTF-8" standalone="no"?>
<svg width="135px" height="40px" viewBox="0 0 135 40" version="1.1" xmlns="http://www.w3.org/2000/svg" xmlns:xlink="http://www.w3.org/1999/xlink">
    <!-- Generator: Sketch 41 (35326) - http://www.bohemiancoding.com/sketch -->
    <title>apple-store</title>
    <desc>Created with Sketch.</desc>
    <defs></defs>
    <g id="Page-1" stroke="none" stroke-width="1" fill="none" fill-rule="evenodd">
        <g id="apple-store">
            <g id="Layer_2">
                <g id="Layer_1-2">
                    <path d="M134,35.27 C134,37.3852506 132.285251,39.1 130.17,39.1 L4.73,39.1 C3.71248933,39.1026567 2.73574285,38.7003131 2.01531425,37.9817606 C1.29488565,37.2632082 0.889996532,36.2875141 0.89,35.27 L0.89,4.73 C0.89,2.60922656 2.60922656,0.89 4.73,0.89 L130.2,0.89 C132.307431,0.906500442 134.005567,2.62251214 134,4.73 L134,35.27 Z" id="Shape" fill="#FFFFFF"></path>
                    <path d="M30.13,19.78 C30.1573267,17.7943288 31.1986603,15.9606761 32.89,14.92 C31.8159694,13.38616 30.0815713,12.4485474 28.21,12.39 C26.21,12.18 24.34,13.57 23.33,13.57 C22.32,13.57 20.76,12.41 19.1,12.45 C16.9124907,12.5221647 14.9232978,13.7369389 13.86,15.65 C11.59,19.57 13.28,25.34 15.46,28.51 C16.55,30.06 17.82,31.8 19.46,31.74 C21.1,31.68 21.69,30.74 23.65,30.74 C25.61,30.74 26.16,31.74 27.86,31.74 C29.56,31.74 30.7,30.18 31.75,28.61 C32.5305057,27.5047427 33.131263,26.2829779 33.53,24.99 C31.4475147,24.1005069 30.1056951,22.0443658 30.13,19.78 L30.13,19.78 Z" id="Shape" fill="#000000"></path>
                    <path d="M26.93,10.31 C27.8822668,9.1690847 28.3522092,7.70185994 28.24,6.22 C26.7873852,6.37110913 25.4449592,7.06374384 24.48,8.16 C23.5278075,9.24325707 23.0456902,10.6608259 23.14,12.1 C24.6108694,12.1155716 26.0076731,11.4558674 26.93,10.31 Z" id="Shape" fill="#000000"></path>
                    <path d="M49.76,26 L48.64,22.52 C48.5133333,22.14 48.3,21.3 48,20 L48,20 C47.8666667,20.5666667 47.6566667,21.4033333 47.37,22.51 L46.18,26 L49.76,26 Z M53.65,31.55 L51.37,31.55 L50.13,27.6 L45.81,27.6 L44.62,31.5 L42.41,31.5 L46.69,18.2 L49.34,18.2 L53.65,31.55 Z" id="Shape" fill="#000000"></path>
                    <path d="M62.49,26.67 C62.52079,25.8537357 62.3009379,25.0476112 61.86,24.36 C61.4419114,23.7476157 60.7412165,23.3897339 60,23.41 C59.4769597,23.4094644 58.9705263,23.5936221 58.57,23.93 C58.1427309,24.2781865 57.8465249,24.7612843 57.73,25.3 C57.671158,25.5119667 57.6375916,25.7301487 57.63,25.95 L57.63,27.55 C57.6108363,28.1998632 57.839649,28.8326732 58.27,29.32 C58.6910858,29.797523 59.3037037,30.0616457 59.94,30.04 C60.6844187,30.0716478 61.3934413,29.7209079 61.82,29.11 C62.2962676,28.3882215 62.5308877,27.5337842 62.49,26.67 L62.49,26.67 Z M64.66,26.59 C64.738933,28.0024246 64.265583,29.390201 63.34,30.46 C62.5875375,31.2842918 61.5158406,31.7435905 60.4,31.72 C59.3110794,31.8072035 58.2635896,31.2834585 57.68,30.36 L57.68,30.36 L57.68,35.41 L55.5,35.41 L55.5,25.07 C55.5,24.0433333 55.4733333,22.99 55.42,21.91 L57.3,21.91 L57.42,23.43 L57.42,23.43 C58.0736644,22.4258182 59.1636829,21.789878 60.3595314,21.7150143 C61.5553799,21.6401507 62.7162005,22.1351817 63.49,23.05 C64.2966817,24.04891 64.7125287,25.3071137 64.66,26.59 L64.66,26.59 Z" id="Shape" fill="#000000"></path>
                    <path d="M73.53,26.67 C73.56079,25.8537357 73.3409379,25.0476112 72.9,24.36 C72.4742307,23.7353105 71.7552132,23.3758017 71,23.41 C70.4769597,23.4094644 69.9705263,23.5936221 69.57,23.93 C69.1421215,24.2776531 68.8457732,24.7609831 68.73,25.3 C68.6716963,25.512082 68.6381396,25.7302005 68.63,25.95 L68.63,27.55 C68.6118408,28.199702 68.8405243,28.8321547 69.27,29.32 C69.7121215,29.799611 70.3496318,30.0501931 71,30 C71.7444187,30.0316478 72.4534413,29.6809079 72.88,29.07 C73.3410978,28.3571151 73.5683192,27.5181437 73.53,26.67 Z M75.7,26.59 C75.778933,28.0024246 75.305583,29.390201 74.38,30.46 C73.628316,31.2853863 72.5560963,31.7449091 71.44,31.72 C70.3510794,31.8072035 69.3035896,31.2834585 68.72,30.36 L68.72,30.36 L68.72,35.41 L66.54,35.41 L66.54,25.07 C66.54,24.0433333 66.5133333,22.99 66.46,21.91 L68.34,21.91 L68.46,23.43 L68.46,23.43 C69.1136644,22.4258182 70.2036829,21.789878 71.3995314,21.7150143 C72.5953799,21.6401507 73.7562005,22.1351817 74.53,23.05 C75.3358678,24.0493537 75.7516107,25.3072424 75.7,26.59 L75.7,26.59 Z" id="Shape" fill="#000000"></path>
                    <path d="M88,27.77 C88.0340934,28.8192164 87.6020659,29.8297213 86.82,30.53 C85.8010663,31.3561484 84.5093261,31.7700761 83.2,31.69 C81.994493,31.7467981 80.797762,31.4588889 79.75,30.86 L80.24,29.08 C81.1676908,29.6441361 82.23428,29.9384871 83.32,29.93 C83.9902021,29.9723144 84.6544129,29.7815305 85.2,29.39 C85.6398334,29.0396314 85.8882419,28.5020309 85.87,27.94 C85.8819222,27.4302426 85.6829208,26.9381665 85.32,26.58 C84.7817897,26.12393 84.1554588,25.7835327 83.48,25.58 C81.16,24.6933333 80,23.4133333 80,21.74 C79.9642593,20.6812461 80.426972,19.6669798 81.25,19 C82.1789485,18.281408 83.3378954,17.9259028 84.51,18 C85.5460628,17.9662589 86.5750309,18.1823422 87.51,18.63 L87,20.37 C86.2154274,19.9538582 85.3379588,19.7439539 84.45,19.76 C83.8156121,19.7202696 83.1888852,19.9161218 82.69,20.31 C82.3477803,20.6142927 82.1544177,21.0520947 82.16,21.51 C82.1512153,22.0143792 82.3764581,22.4944048 82.77,22.81 C83.3596083,23.2440003 84.0144415,23.5815432 84.71,23.81 C85.6671326,24.1473525 86.533103,24.7018474 87.24,25.43 C87.7783018,26.0868274 88.0496264,26.9222216 88,27.77 Z" id="Shape" fill="#000000"></path>
                    <path d="M95.09,23.51 L92.74,23.51 L92.74,28.17 C92.74,29.3566667 93.1533333,29.95 93.98,29.95 C94.2996168,29.9568668 94.6188183,29.9232667 94.93,29.85 L95,31.46 C94.4648977,31.6361979 93.9030956,31.7174223 93.34,31.7 C92.5928082,31.7481611 91.8619842,31.4667939 91.34,30.93 C90.7942894,30.1826755 90.5416666,29.2611358 90.63,28.34 L90.63,23.51 L89.23,23.51 L89.23,21.91 L90.63,21.91 L90.63,20.15 L92.72,19.52 L92.72,21.91 L95.07,21.91 L95.09,23.51 Z" id="Shape" fill="#000000"></path>
                    <path d="M103.48,26.7 C103.504351,25.9019284 103.307049,25.1127215 102.91,24.42 C102.544362,23.7041417 101.803745,23.25822 101,23.27 C100.166088,23.2303991 99.3852769,23.6793652 99,24.42 C98.5996763,25.1259665 98.4024043,25.9288982 98.43,26.74 C98.4088337,27.5313857 98.6060454,28.3133129 99,29 C99.3783777,29.7119173 100.118777,30.1568798 100.925,30.1568798 C101.731223,30.1568798 102.471622,29.7119173 102.85,29 C103.271141,28.3074141 103.48942,27.510522 103.48,26.7 Z M105.69,26.63 C105.742798,27.9555992 105.292742,29.2521915 104.43,30.26 C103.529998,31.2428213 102.241412,31.7772915 100.91,31.72 C99.6342836,31.7781831 98.3989659,31.2649948 97.54,30.32 C96.6907825,29.3444123 96.2439662,28.0826031 96.29,26.79 C96.2352452,25.4528076 96.6971651,24.1458251 97.58,23.14 C98.4749714,22.1782809 99.7476926,21.6589521 101.06,21.72 C102.343828,21.6653325 103.5869,22.1771859 104.46,23.12 C105.306091,24.0883084 105.746598,25.3453647 105.69,26.63 L105.69,26.63 Z" id="Shape" fill="#000000"></path>
                    <path d="M112.62,23.78 C112.398952,23.7396977 112.174692,23.7196148 111.95,23.72 C111.262353,23.6849286 110.605017,24.0060409 110.21,24.57 C109.839077,25.1286358 109.653629,25.7899537 109.68,26.46 L109.68,31.46 L107.55,31.46 L107.55,24.89 C107.55,23.7833333 107.523333,22.7833333 107.47,21.89 L109.33,21.89 L109.41,23.73 L109.47,23.73 C109.672631,23.1307541 110.044223,22.6028865 110.54,22.21 C110.985144,21.8788373 111.525183,21.699993 112.08,21.7 C112.256401,21.6862903 112.433599,21.6862903 112.61,21.7 L112.62,23.78 Z" id="Shape" fill="#000000"></path>
                    <path d="M120.12,25.7 C120.149234,25.1247472 120.006502,24.553819 119.71,24.06 C119.351912,23.4713677 118.697769,23.1289049 118.01,23.17 C117.332535,23.1532613 116.692678,23.480718 116.31,24.04 C115.946652,24.5222953 115.728133,25.0980746 115.68,25.7 L120.12,25.7 Z M122.12,26.25 C122.126925,26.5851724 122.100124,26.9201915 122.04,27.25 L115.64,27.25 C115.612208,28.0755794 115.953,28.8707601 116.57,29.42 C117.164662,29.8850728 117.905779,30.1226556 118.66,30.09 C119.543874,30.1032348 120.42239,29.9505968 121.25,29.64 L121.58,31.12 C120.558809,31.5365163 119.462527,31.7373878 118.36,31.71 C117.058257,31.7835929 115.785218,31.30847 114.85,30.4 C113.972834,29.4438 113.51541,28.1759812 113.58,26.88 C113.535032,25.5734824 113.95691,24.2936673 114.77,23.27 C115.578834,22.253913 116.822165,21.682352 118.12,21.73 C119.363251,21.6623761 120.552346,22.2455627 121.26,23.27 C121.857849,24.1478451 122.171983,25.1879774 122.16,26.25 L122.12,26.25 Z" id="Shape" fill="#000000"></path>
                    <path d="M47.95,10 C47.9930604,9.35497904 47.7729914,8.72002574 47.34,8.24 C46.8575014,7.80442898 46.2184035,7.58417489 45.57,7.63 C45.2884137,7.6266421 45.0071466,7.65008103 44.73,7.7 L44.73,12.59 C44.9664223,12.6052086 45.2035777,12.6052086 45.44,12.59 C46.1112269,12.6529643 46.7791612,12.4399474 47.29,12 C47.7737088,11.4513326 48.0121448,10.7287991 47.95,10 Z M49.05,10 C49.1284437,11.0039981 48.741326,11.9883832 48,12.67 C47.1995974,13.2637584 46.2145129,13.5543229 45.22,13.49 C44.7088655,13.4936691 44.1979646,13.4669554 43.69,13.41 L43.69,7 C44.2886073,6.90490896 44.89389,6.85809152 45.5,6.86 C46.4251393,6.79321997 47.3436935,7.05921056 48.09,7.61 C48.7531004,8.22178371 49.1056596,9.09950936 49.05,10 L49.05,10 Z" id="Shape" fill="#000000"></path>
                    <path d="M53.82,11.07 C53.8225121,10.6949005 53.7259224,10.3257896 53.54,10 C53.3656336,9.64326615 52.9967242,9.42349032 52.6,9.44 C52.1851985,9.41224024 51.7930792,9.63182707 51.6,10 C51.4032182,10.3468658 51.3063057,10.7414383 51.32,11.14 C51.3084504,11.5319907 51.405343,11.919561 51.6,12.26 C51.7949799,12.626318 52.1857868,12.8451699 52.6,12.82 C52.9990331,12.8347136 53.3685704,12.6106324 53.54,12.25 C53.7462473,11.8923242 53.8435633,11.4822071 53.82,11.07 L53.82,11.07 Z M54.91,11.07 C54.9342325,11.7201446 54.7128953,12.3555966 54.29,12.85 C53.8478419,13.3335403 53.2146623,13.5970601 52.56,13.57 C51.9349037,13.5959954 51.3305042,13.3432465 50.91,12.88 C50.489671,12.3998953 50.2679778,11.7777241 50.29,11.14 C50.2629371,10.4846587 50.4884455,9.84392846 50.92,9.35 C51.3596413,8.87700955 51.98489,8.62105976 52.63,8.65 C53.2607478,8.62492724 53.8709002,8.87702611 54.3,9.34 C54.6996066,9.80005046 54.9166401,10.3906661 54.91,11 L54.91,11.07 Z" id="Shape" fill="#000000"></path>
                    <path d="M62.77,8.72 L61.3,13.43 L60.3,13.43 L59.69,11.43 C59.5374908,10.9301463 59.4106583,10.4228164 59.31,9.91 L59.31,9.91 C59.2191321,10.4249504 59.092152,10.9328707 58.93,11.43 L58.28,13.43 L57.28,13.43 L55.94,8.72 L57,8.72 L57.55,11 C57.6766667,11.5333333 57.7833333,12.0366667 57.87,12.51 L57.87,12.51 C57.95,12.1166667 58.08,11.6166667 58.26,11.01 L58.93,8.76 L59.78,8.76 L60.42,10.96 C60.5733333,11.5 60.7,12.0166667 60.8,12.51 L60.8,12.51 C60.8790011,11.9880057 60.9858199,11.4706025 61.12,10.96 L61.69,8.76 L62.69,8.76 L62.77,8.72 Z" id="Shape" fill="#000000"></path>
                    <path d="M68.2,13.43 L67.2,13.43 L67.2,10.73 C67.2,9.89666667 66.8666667,9.48 66.2,9.48 C65.9092878,9.47747038 65.6318663,9.60158 65.44,9.82 C65.2481794,10.045826 65.1450982,10.3337425 65.15,10.63 L65.15,13.43 L64.15,13.43 L64.15,10.07 L64.15,8.72 L65,8.72 L65,9.46 L65,9.46 C65.1265881,9.22570685 65.3128865,9.02905859 65.54,8.89 C65.8256899,8.71519796 66.1551122,8.62504028 66.49,8.63 C66.9000413,8.61687691 67.2975641,8.77227218 67.59,9.06 C67.9785323,9.4826228 68.1741074,10.0476173 68.13,10.62 L68.2,13.43 Z" id="Shape" fill="#000000"></path>
                    <rect id="Rectangle-path" fill="#000000" x="70.04" y="6.56" width="1.05" height="6.88"></rect>
                    <path d="M76.17,11.07 C76.1725121,10.6949005 76.0759224,10.3257896 75.89,10 C75.7378881,9.64033081 75.3903245,9.40211311 75,9.39 C74.5699969,9.35639898 74.1669016,9.60228707 74,10 C73.8032182,10.3468658 73.7063057,10.7414383 73.72,11.14 C73.7174879,11.5150995 73.8140776,11.8842104 74,12.21 C74.1949799,12.576318 74.5857868,12.7951699 75,12.77 C75.3990331,12.7847136 75.7685704,12.5606324 75.94,12.2 C76.1201052,11.8519971 76.1997464,11.4607161 76.17,11.07 Z M77.26,11.07 C77.2842325,11.7201446 77.0628953,12.3555966 76.64,12.85 C76.1978419,13.3335403 75.5646623,13.5970601 74.91,13.57 C74.2846524,13.5974024 73.679679,13.3444136 73.26,12.88 C72.8432836,12.398392 72.6252234,11.7763843 72.65,11.14 C72.6256823,10.4833057 72.85483,9.84240817 73.29,9.35 C73.7241153,8.86592401 74.35013,8.59867796 75,8.62 C75.6307478,8.59492724 76.2409002,8.84702611 76.67,9.31 C77.0693543,9.78072345 77.2796192,10.3830077 77.26,11 L77.26,11.07 Z" id="Shape" fill="#000000"></path>
                    <path d="M81.24,11.81 L81.24,11.08 C80.0866667,11.08 79.51,11.3966667 79.51,12.03 C79.4944939,12.2335609 79.5673613,12.4339463 79.71,12.58 C79.8506842,12.7030833 80.0332243,12.7675092 80.22,12.76 C80.4516412,12.7585674 80.6764362,12.6812941 80.86,12.54 C81.1012431,12.3713487 81.2434967,12.0943285 81.24,11.8 L81.24,11.81 Z M82.33,13.43 L81.39,13.43 L81.31,12.89 L81.31,12.89 C80.9883424,13.3246628 80.4699671,13.5688251 79.93,13.54 C79.5251355,13.5573364 79.1321523,13.4008709 78.85,13.11 C78.5936481,12.8421993 78.459695,12.4801638 78.48,12.11 C78.457565,11.5707402 78.7344632,11.0630934 79.2,10.79 C79.8119309,10.4571523 80.5044774,10.3013294 81.2,10.34 L81.2,10.3 C81.2,9.68 80.8666667,9.37 80.2,9.37 C79.7744919,9.36760978 79.3575035,9.48923141 79,9.72 L78.8,9 C79.2902695,8.71265924 79.8520672,8.57047587 80.42,8.59 C81.6533333,8.59 82.27,9.25666667 82.27,10.59 L82.27,12.33 C82.2624923,12.6976507 82.2825485,13.0653471 82.33,13.43 L82.33,13.43 Z" id="Shape" fill="#000000"></path>
                    <path d="M87.2,11.45 L87.2,10.66 C87.2118197,10.5503175 87.2118197,10.4396825 87.2,10.33 C87.1450252,10.0815224 87.0118415,9.85721301 86.82,9.69 C86.6289919,9.51619834 86.3781521,9.42302929 86.12,9.43 C85.753429,9.42032069 85.4069891,9.59730628 85.2,9.9 C84.9636998,10.2507419 84.8446654,10.6673624 84.86,11.09 C84.8396371,11.4947126 84.9519995,11.8950035 85.18,12.23 C85.3892718,12.5288993 85.7353175,12.7019221 86.1,12.69 C86.4234819,12.7019997 86.7327628,12.556675 86.93,12.3 C87.118195,12.0577783 87.2139197,11.7564228 87.2,11.45 L87.2,11.45 Z M88.29,13.45 L87.36,13.45 L87.36,12.69 L87.36,12.69 C87.0756617,13.2544801 86.4805563,13.5934143 85.85,13.55 C85.2980865,13.560313 84.7729606,13.3125424 84.43,12.88 C84.0396967,12.3864637 83.8408249,11.7685408 83.87,11.14 C83.8389205,10.4693028 84.0560901,9.8106736 84.48,9.29 C84.8416196,8.86595957 85.3727339,8.62421096 85.93,8.63 C86.458503,8.57572696 86.9726465,8.82313435 87.26,9.27 L87.26,9.27 L87.26,6.56 L88.26,6.56 L88.26,12.17 C88.2533333,12.6233333 88.2633333,13.0433333 88.29,13.43 L88.29,13.45 Z" id="Shape" fill="#000000"></path>
                    <path d="M96.16,11.07 C96.1625121,10.6949005 96.0659224,10.3257896 95.88,10 C95.7056336,9.64326615 95.3367242,9.42349032 94.94,9.44 C94.5464812,9.43575991 94.1836299,9.65192658 94,10 C93.8032182,10.3468658 93.7063057,10.7414383 93.72,11.14 C93.7174879,11.5150995 93.8140776,11.8842104 94,12.21 C94.1856633,12.5595952 94.5491621,12.7781285 94.945,12.7781285 C95.3408379,12.7781285 95.7043367,12.5595952 95.89,12.21 C96.0847884,11.8627074 96.1783269,11.4677673 96.16,11.07 L96.16,11.07 Z M97.25,11.07 C97.2742325,11.7201446 97.0528953,12.3555966 96.63,12.85 C96.1886556,13.3346977 95.5549101,13.5984531 94.9,13.57 C94.2749037,13.5959954 93.6705042,13.3432465 93.25,12.88 C92.829671,12.3998953 92.6079778,11.7777241 92.63,11.14 C92.6056823,10.4833057 92.83483,9.84240817 93.27,9.35 C93.7086504,8.86043404 94.343234,8.59266179 95,8.62 C95.6309897,8.59356324 96.2416916,8.84588918 96.67,9.31 C97.0657522,9.78217996 97.272401,10.3843118 97.25,11 L97.25,11.07 Z" id="Shape" fill="#000000"></path>
                    <path d="M102.88,13.43 L101.88,13.43 L101.88,10.73 C101.88,9.89666667 101.546667,9.48 100.88,9.48 C100.587552,9.46884402 100.306592,9.59453639 100.12,9.82 C99.9273669,10.0453556 99.8241717,10.3335903 99.83,10.63 L99.83,13.43 L98.83,13.43 L98.83,10.07 L98.83,8.72 L99.75,8.72 L99.75,9.46 L99.75,9.46 C99.8773527,9.22626168 100.063482,9.02979209 100.29,8.89 C100.590055,8.70580424 100.938227,8.61527974 101.29,8.63 C101.700041,8.61687691 102.097564,8.77227218 102.39,9.06 C102.778532,9.4826228 102.974107,10.0476173 102.93,10.62 L102.88,13.43 Z" id="Shape" fill="#000000"></path>
                    <path d="M109.94,9.5 L108.79,9.5 L108.79,11.79 C108.79,12.37 109,12.66 109.4,12.66 C109.55603,12.6799818 109.71397,12.6799818 109.87,12.66 L109.87,13.46 C109.609103,13.547094 109.334942,13.5877105 109.06,13.58 C108.686566,13.6095734 108.319554,13.4701089 108.06,13.2 C107.791456,12.8339518 107.666886,12.3819382 107.71,11.93 L107.71,9.5 L107.02,9.5 L107.02,8.72 L107.71,8.72 L107.71,7.86 L108.71,7.55 L108.71,8.72 L109.86,8.72 L109.86,9.5 L109.94,9.5 Z" id="Shape" fill="#000000"></path>
                    <path d="M115.48,13.43 L114.48,13.43 L114.48,10.75 C114.48,9.90333333 114.163333,9.48 113.53,9.48 C113.067996,9.462918 112.654511,9.76476248 112.53,10.21 C112.511672,10.3360037 112.511672,10.4639963 112.53,10.59 L112.53,13.42 L111.53,13.42 L111.53,6.56 L112.53,6.56 L112.53,9.4 L112.53,9.4 C112.826443,8.9024857 113.371319,8.60702459 113.95,8.63 C114.335131,8.60981376 114.712605,8.74282843 115,9 C115.3819,9.43399426 115.572936,10.0034976 115.53,10.58 L115.48,13.43 Z" id="Shape" fill="#000000"></path>
                    <path d="M120.21,10.58 C120.226571,10.2960065 120.156852,10.0136422 120.01,9.77 C119.834706,9.48248875 119.516342,9.31371732 119.18,9.33 C118.849245,9.32724431 118.538525,9.48821944 118.35,9.76 C118.171869,9.99888401 118.064452,10.2830179 118.04,10.58 L120.21,10.58 Z M121.21,10.85 C121.224584,11.0063273 121.224584,11.1636727 121.21,11.32 L118,11.32 C117.986545,11.7273335 118.155145,12.11951 118.46,12.39 C118.745009,12.6125803 119.098493,12.7292302 119.46,12.72 C119.893358,12.7266226 120.324121,12.6520023 120.73,12.5 L120.89,13.23 C120.388362,13.4325144 119.850858,13.5311702 119.31,13.52 C118.670845,13.554372 118.046677,13.3184947 117.59,12.87 C117.160049,12.3995988 116.936713,11.7764171 116.97,11.14 C116.947264,10.4998805 117.152838,9.87252565 117.55,9.37 C117.946584,8.86708642 118.560037,8.58452625 119.2,8.61 C119.81089,8.57672734 120.394804,8.86489287 120.74,9.37 C121.048547,9.80156192 121.213025,10.3194926 121.21,10.85 L121.21,10.85 Z" id="Shape" fill="#000000"></path>
                    <path d="M130.2,2 C131.719468,1.99952509 132.962013,3.21100683 133,4.73 L133,35.27 C132.956809,36.7867166 131.717324,37.9952151 130.2,38 L4.73,38 C3.22226263,38 2,36.7777374 2,35.27 L2,4.73 C2,3.22226263 3.22226263,2 4.73,2 L130.2,2 L130.2,2 Z M130.2,0 L4.73,0 C2.11769313,-1.59957662e-16 3.19915324e-16,2.11769313 0,4.73 L0,35.27 C0.00550059797,37.880025 2.11997495,39.9944994 4.73,40 L130.2,40 C132.823869,40.000279 134.961735,37.89359 135,35.27 L135,4.73 C134.961735,2.10641004 132.823869,-0.000279028466 130.2,0 Z" id="Shape" fill="#000000"></path>
                </g>
            </g>
        </g>
    </g>
</svg>