<svg xmlns="http://www.w3.org/2000/svg" xmlns:xlink="http://www.w3.org/1999/xlink" viewBox="0 0 176.37 226.57"><defs><style>.cls-1,.cls-12,.cls-2{fill:none;}.cls-1{clip-rule:evenodd;}.cls-3{clip-path:url(#clip-path);}.cls-4{clip-path:url(#clip-path-2);}.cls-5{fill:#2d3941;}.cls-6{clip-path:url(#clip-path-3);}.cls-7{fill:#3c4b54;}.cls-8{clip-path:url(#clip-path-5);}.cls-9{fill:#389ee3;}.cls-10{clip-path:url(#clip-path-7);}.cls-11{clip-path:url(#clip-path-9);}.cls-12{stroke:#fff;stroke-linecap:round;stroke-linejoin:round;stroke-width:2px;}</style><clipPath id="clip-path" transform="translate(-189.46 -9.79)"><path class="cls-1" d="M199.47,61.21a15,15,0,0,1,10.6-18.38l86-23a15,15,0,0,1,18.37,10.62l41.41,154.53a15,15,0,0,1-10.6,18.38l-86,23a15,15,0,0,1-18.37-10.62Z"/></clipPath><clipPath id="clip-path-2" transform="translate(-189.46 -9.79)"><rect class="cls-2" width="375" height="667"/></clipPath><clipPath id="clip-path-3" transform="translate(-189.46 -9.79)"><rect class="cls-2" x="221.56" y="63.42" width="111" height="118" rx="2" ry="2" transform="translate(-22.24 75.88) rotate(-15)"/></clipPath><clipPath id="clip-path-5" transform="translate(-189.46 -9.79)"><circle class="cls-2" cx="276.58" cy="122.55" r="31" transform="translate(-22.29 75.76) rotate(-15)"/></clipPath><clipPath id="clip-path-7" transform="translate(-189.46 -9.79)"><path class="cls-1" d="M238.62,58.18a1,1,0,0,1,.7-1.22L278,46.6a1,1,0,0,1,.52,1.93L239.85,58.89A1,1,0,0,1,238.62,58.18Z"/></clipPath><clipPath id="clip-path-9" transform="translate(-189.46 -9.79)"><circle class="cls-2" cx="297.12" cy="197.28" r="11.5" transform="translate(-40.94 83.62) rotate(-15)"/></clipPath></defs><title>payment_app</title><g id="Layer_2" data-name="Layer 2"><g id="Layer_1-2" data-name="Layer 1"><g class="cls-3"><g class="cls-4"><rect class="cls-5" x="213.15" y="23.08" width="129" height="200" transform="translate(-211.86 66.26) rotate(-15)"/></g></g><g class="cls-6"><g class="cls-4"><rect class="cls-7" x="216.56" y="58.42" width="121" height="128" transform="translate(-211.71 66.09) rotate(-15)"/></g></g><g class="cls-8"><g class="cls-4"><rect class="cls-9" x="240.58" y="86.55" width="72" height="72" transform="translate(-211.76 65.96) rotate(-15)"/></g></g><g class="cls-10"><g class="cls-4"><rect class="cls-7" x="232.91" y="46.75" width="52" height="12" transform="translate(-194.29 59.01) rotate(-15)"/></g></g><g class="cls-11"><g class="cls-4"><rect class="cls-7" x="280.62" y="180.78" width="33" height="33" transform="translate(-230.4 73.83) rotate(-15)"/></g></g><polyline class="cls-12" points="75.87 117.15 84.77 122.7 96.38 100.96"/></g></g></svg>