<svg xmlns="http://www.w3.org/2000/svg" xmlns:xlink="http://www.w3.org/1999/xlink" viewBox="0 0 162.05 138.43"><defs><style>.cls-1,.cls-2,.cls-3,.cls-4{fill:none;}.cls-1{clip-rule:evenodd;}.cls-3,.cls-4{stroke:#44ba65;stroke-miterlimit:10;stroke-width:4px;}.cls-3{opacity:0.3;}.cls-5{clip-path:url(#clip-path);}.cls-6{clip-path:url(#clip-path-2);}.cls-7{isolation:isolate;}.cls-8{clip-path:url(#clip-path-3);}.cls-9{clip-path:url(#clip-path-4);}.cls-10{fill:#bc57fc;}.cls-11{clip-path:url(#clip-path-5);}.cls-12{opacity:0.2;}.cls-13{clip-path:url(#clip-path-7);}.cls-14{fill:#ffebc4;}.cls-15{clip-path:url(#clip-path-9);}.cls-16{fill:#44ba65;}.cls-17{clip-path:url(#clip-path-11);}.cls-18{fill:#fff;}.cls-19{clip-path:url(#clip-path-13);}</style><clipPath id="clip-path" transform="translate(-114 -162)"><polygon class="cls-1" points="230.06 183 242.94 183 258.09 288.95 247 293 230.06 183"/></clipPath><clipPath id="clip-path-2" transform="translate(-114 -162)"><rect class="cls-2" width="375" height="667"/></clipPath><clipPath id="clip-path-3" transform="translate(-114 -162)"><rect class="cls-2" x="225" y="174" width="47" height="124"/></clipPath><clipPath id="clip-path-4" transform="translate(-114 -162)"><rect class="cls-2" x="230" y="183" width="29" height="110"/></clipPath><clipPath id="clip-path-5" transform="translate(-114 -162)"><polygon class="cls-1" points="237.08 183.64 253.06 295.43 271.05 293.38 245.39 174.22 237.08 183.64"/></clipPath><clipPath id="clip-path-7" transform="translate(-114 -162)"><polygon class="cls-1" points="230 183 243 183 236.91 187 230 183"/></clipPath><clipPath id="clip-path-9" transform="translate(-114 -162)"><polygon class="cls-1" points="135.75 183 230.25 183 247 293 119 293 135.75 183"/></clipPath><clipPath id="clip-path-11" transform="translate(-114 -162)"><path class="cls-1" d="M192.46,241.24a15.38,15.38,0,0,0-2.53.12,3.26,3.26,0,0,1-.7,3.44A4.54,4.54,0,0,1,186.3,246a1.76,1.76,0,0,1-1.52-.67,2,2,0,0,1-.11-1.92,1.49,1.49,0,0,1,1.33-1.13,1.21,1.21,0,0,1,1.08.74,1.12,1.12,0,0,0,.31-.52c.14-.66-1-1.27-1.45-1.5-1.24-.6-1.88-.81-6-.94h-.15c-.3,0-.64,0-1-.06l-.38,1s-8.11,3.78-8.76,9.94c-.22,2.08-.58,6.58,5,6.78,1.34,0,3.23.93,3.81,3.75.32,1.6,1,10.56-2.77,5.91-2-2.48-2-7-12.67-1.25,1.05-.55,6.64-3.11,10.34,1.83,4.09,5.47,8.17,2.17,10.07,0s11.53-1.3,10.95-12.83c0,0,4.33,1.41,6.77-1s4.3-11.76-8.67-12.82"/></clipPath><clipPath id="clip-path-13" transform="translate(-114 -162)"><path class="cls-1" d="M194.07,216.31a13.47,13.47,0,0,0-2.49-3.32,10.71,10.71,0,0,0-4-2.51c-.78-.26-1.61-.4-2.41-.59a.88.88,0,0,0-.19-.17l-.06,0c-.52-2.75-2-5-3.39-7.44-.2-.34-2.17-3.4-2.5-1.76a3,3,0,0,0,.19,1.22c.21.79.53,1.52.75,2.3l.78,2.77c.06.2.75,3,.85,3a13.78,13.78,0,0,0-5.33,1.35,8.55,8.55,0,0,0-5.07,6.88,9.7,9.7,0,0,0,.43,4.28,9,9,0,0,0,1.23,2.2l.13.18q.63.91,1.32,1.78c.23.3.81,1.31,1.26,1.28h0a1,1,0,0,0,.25.17c-.2,1.25-.5,2.67-.66,3.45a2.66,2.66,0,0,0-1.09,1.56c-.33,1.09-.12,2.11.48,2.29s1.36-.56,1.69-1.65a3.11,3.11,0,0,0,.12-1.44,5,5,0,0,0,.67-.67c-1.9,7.72.93,7.61,3,7.68,4,.13,4.84.33,6.27,1,3.77,1.81.83,3.93-.14,3.93-.22,0-.34-.1-.27-.34a.31.31,0,0,1,.31-.26,1,1,0,0,1,.47.19c-.13-.64-.38-.9-.63-.9s-.52.27-.65.66c-.43,1.21.14,1.65,1,1.65a3.85,3.85,0,0,0,2.42-1c1.59-1.59-.06-4-.06-4a6.46,6.46,0,0,0,.67,0c5.21,0-.31-7.6-.31-7.6a1.8,1.8,0,0,0-.06-2.8l.13-1.5a1.06,1.06,0,0,0,.32-.15,5.54,5.54,0,0,1,.61-.2,6.16,6.16,0,0,0,.75-.43,8.15,8.15,0,0,0,1.36-1.17,9.5,9.5,0,0,0,2.09-3,8.23,8.23,0,0,0-.2-7m-18.32,17.14c-.19.6-.6,1-.93.91s-.46-.67-.27-1.27a1.56,1.56,0,0,1,.53-.82.41.41,0,0,0,.39.33.66.66,0,0,0,.22,0l.09,0a1.6,1.6,0,0,1,0,.93m4.36-5.53s-.81-5.06,3.62-1.4c0,0-3.68-2.41-3.62,1.4m1,0c.36-1.73,1.8-1.07,2.26,0a4.94,4.94,0,0,1,.36,3c-.12.41-.72,1.33-1.7.36a3.41,3.41,0,0,1-.92-3.35m4.78,8.24a2.9,2.9,0,0,1-2.16-.2,3.55,3.55,0,0,1-1.53-1c-.39-.56.16-.87.7-.92a4,4,0,0,1,2,.44,3.54,3.54,0,0,0,3-.09.1.1,0,0,1,.15.08c.1,1-1.44,1.49-2.14,1.72m1.17-4.58c-.77.53-1.06-.16-1.08-.44a3.35,3.35,0,0,1,.62-1.94c.44-.65,1.48-.91,1.5.28a2.31,2.31,0,0,1-1,2.11m-.58-4.25a8.9,8.9,0,0,1,1.73-1h0a2.48,2.48,0,0,1,.67-.15h.22a.65.65,0,0,1,.7.55h0c0-.06-.22-1-3.33.56"/></clipPath></defs><title>download_bag</title><g id="Layer_2" data-name="Layer 2"><g id="Layer_1-2" data-name="Layer 1"><path class="cls-3" d="M183,178.49a14.5,14.5,0,0,1,29,0v8a14.5,14.5,0,0,1-29,0Z" transform="translate(-114 -162)"/><path class="cls-4" d="M173,178.49a14.5,14.5,0,0,1,29,0v8a14.5,14.5,0,0,1-29,0Z" transform="translate(-114 -162)"/><g class="cls-5"><g class="cls-6"><g class="cls-7"><g class="cls-8"><g class="cls-9"><rect class="cls-10" x="111.05" y="16" width="38.04" height="120"/></g><g class="cls-11"><g class="cls-9"><rect class="cls-12" x="118.08" y="7.22" width="43.97" height="131.21"/></g></g><g class="cls-13"><g class="cls-9"><rect class="cls-14" x="111" y="16" width="23" height="14"/></g></g></g></g></g></g><g class="cls-15"><g class="cls-6"><rect class="cls-16" y="16" width="138" height="120"/></g></g><g class="cls-17"><g class="cls-6"><rect class="cls-18" x="44" y="73" width="49.83" height="40.9"/></g></g><g class="cls-19"><g class="cls-6"><rect class="cls-18" x="52.1" y="33" width="33.85" height="55.09"/></g></g></g></g></svg>