<svg xmlns="http://www.w3.org/2000/svg" xmlns:xlink="http://www.w3.org/1999/xlink" viewBox="0 0 200.52 149.78"><defs><style>.cls-1,.cls-11,.cls-2{fill:none;}.cls-1{clip-rule:evenodd;}.cls-3{clip-path:url(#clip-path);}.cls-4{clip-path:url(#clip-path-2);}.cls-5{fill:#f6caa4;}.cls-6{clip-path:url(#clip-path-3);}.cls-7{fill:#44ba65;}.cls-8{clip-path:url(#clip-path-5);}.cls-9{fill:#2d8946;}.cls-10{clip-path:url(#clip-path-7);}.cls-11{stroke:#2d8946;stroke-linecap:round;stroke-miterlimit:10;stroke-width:2px;}.cls-12{clip-path:url(#clip-path-9);}.cls-13{clip-path:url(#clip-path-11);}.cls-14{clip-path:url(#clip-path-13);}.cls-15{fill:#ffe2ca;}</style><clipPath id="clip-path" transform="translate(-89.88 -221.61)"><path class="cls-1" d="M198,307.92l1.36,27.73a3.47,3.47,0,0,0,2,2.78l41.25,17.37,26.26-40.43-45.43-27.72Z"/></clipPath><clipPath id="clip-path-2" transform="translate(-89.88 -221.61)"><rect class="cls-2" width="375" height="667"/></clipPath><clipPath id="clip-path-3" transform="translate(-89.88 -221.61)"><path class="cls-1" d="M96.52,263.57a2,2,0,0,1,1.42-2.45L220.6,228.25a2,2,0,0,1,2.45,1.41l18.89,70.51a2,2,0,0,1-1.42,2.45L117.87,335.49a2,2,0,0,1-2.45-1.41Z"/></clipPath><clipPath id="clip-path-5" transform="translate(-89.88 -221.61)"><rect class="cls-2" x="99.46" y="255.93" width="131" height="20" transform="translate(-63.21 51.76) rotate(-15)"/></clipPath><clipPath id="clip-path-7" transform="translate(-89.88 -221.61)"><path class="cls-1" d="M121.31,309.72a1,1,0,0,1,.71-1.22l35.73-9.57a1,1,0,0,1,1.23.7l2.85,10.63a1,1,0,0,1-.71,1.22l-35.73,9.57a1,1,0,0,1-1.23-.7Z"/></clipPath><clipPath id="clip-path-9" transform="translate(-89.88 -221.61)"><path class="cls-1" d="M202.63,271.62a9,9,0,0,1,.13-13l6.77-6.55,71.73,69.34a2.38,2.38,0,0,1,0,3.44l-9.94,9.62a2.59,2.59,0,0,1-3.56,0"/></clipPath><clipPath id="clip-path-11" transform="translate(-89.88 -221.61)"><path class="cls-1" d="M226.67,294.59a7.69,7.69,0,0,1,1.47,3.07c.56,2.1-.6,8.41-.6,8.41l24.05,12.57,2-5.13-25.05-23.37Z"/></clipPath><clipPath id="clip-path-13" transform="translate(-89.88 -221.61)"><path class="cls-1" d="M203.53,257.27l5.43-5.2,11.47,11-2.71,2.6a3.91,3.91,0,0,1-5.36.07"/></clipPath></defs><title>payment_card</title><g id="Layer_2" data-name="Layer 2"><g id="Layer_1-2" data-name="Layer 1"><g class="cls-3"><g class="cls-4"><rect class="cls-5" x="191.8" y="281.31" width="82.4" height="80.79" transform="translate(-165.2 -150.34) rotate(-15)"/></g></g><g class="cls-6"><g class="cls-4"><rect class="cls-7" x="98.73" y="238.37" width="141" height="87" transform="translate(-157.06 -168.2) rotate(-15)"/></g></g><g class="cls-8"><g class="cls-4"><rect class="cls-9" x="94.46" y="250.93" width="141" height="30" transform="translate(-153.08 -169.85) rotate(-15)"/></g></g><g class="cls-10"><g class="cls-4"><rect class="cls-9" x="117.07" y="298.49" width="49" height="23" transform="translate(-165.28 -174.4) rotate(-15)"/></g></g><line class="cls-11" x1="81.21" y1="76.85" x2="112.12" y2="68.57"/><line class="cls-11" x1="82.77" y1="82.64" x2="104.02" y2="76.95"/><g class="cls-12"><g class="cls-4"><rect class="cls-5" x="203.29" y="240.47" width="74.67" height="105.89" transform="translate(-157.62 -149.33) rotate(-15)"/></g></g><g class="cls-13"><g class="cls-4"><rect class="cls-5" x="222.57" y="282.89" width="33.24" height="43.49" transform="translate(-160.57 -149.32) rotate(-15)"/></g></g><g class="cls-14"><g class="cls-4"><rect class="cls-15" x="199.4" y="246.59" width="24.83" height="25.87" transform="translate(-149.83 -157.94) rotate(-15)"/></g></g></g></g></svg>