<svg xmlns="http://www.w3.org/2000/svg" xmlns:xlink="http://www.w3.org/1999/xlink" viewBox="0 0 156.12 110.87"><defs><style>.cls-1,.cls-2{fill:none;}.cls-2{clip-rule:evenodd;}.cls-3{clip-path:url(#clip-path);}.cls-4{clip-path:url(#clip-path-2);}.cls-5{fill:#ffc1c1;}.cls-6{clip-path:url(#clip-path-3);}.cls-7{fill:#ec9999;}.cls-8{clip-path:url(#clip-path-5);}.cls-9{clip-path:url(#clip-path-7);}.cls-10{clip-path:url(#clip-path-9);}.cls-11{clip-path:url(#clip-path-11);}.cls-12{clip-path:url(#clip-path-13);}.cls-13{clip-path:url(#clip-path-15);}.cls-14{clip-path:url(#clip-path-17);}.cls-15{fill:#fff3c8;}.cls-16{clip-path:url(#clip-path-19);}</style><clipPath id="clip-path" transform="translate(-19.88 -154.88)"><rect class="cls-1" x="32.44" y="176.81" width="131" height="67" rx="2.01" ry="2.01" transform="translate(-51.1 32.51) rotate(-15)"/></clipPath><clipPath id="clip-path-2" transform="translate(-19.88 -154.88)"><rect class="cls-1" width="375" height="667"/></clipPath><clipPath id="clip-path-3" transform="translate(-19.88 -154.88)"><path class="cls-2" d="M32.64,200.36A2,2,0,0,1,34,197.93l5.77-1.55c1.06-.28,1.47.27.92,1.22l-5,8.73c-.55,1-1.23.86-1.52-.19Z"/></clipPath><clipPath id="clip-path-5" transform="translate(-19.88 -154.88)"><path class="cls-2" d="M149.52,169a2,2,0,0,0-2.44-1.41l-5.77,1.55c-1.06.28-1.14,1-.19,1.52l8.73,5c1,.55,1.5.13,1.22-.92Z"/></clipPath><clipPath id="clip-path-7" transform="translate(-19.88 -154.88)"><path class="cls-2" d="M46.36,251.58A2,2,0,0,0,48.8,253l5.77-1.55c1.06-.28,1.14-1,.19-1.52l-8.73-5c-1-.55-1.5-.13-1.22.92Z"/></clipPath><clipPath id="clip-path-9" transform="translate(-19.88 -154.88)"><path class="cls-2" d="M163.24,220.26a2,2,0,0,1-1.41,2.44l-5.77,1.55c-1.06.28-1.47-.27-.92-1.22l5-8.73c.55-1,1.23-.86,1.52.19Z"/></clipPath><clipPath id="clip-path-11" transform="translate(-19.88 -154.88)"><ellipse class="cls-1" cx="98.42" cy="210.18" rx="18" ry="23.5" transform="translate(-51.05 32.64) rotate(-15)"/></clipPath><clipPath id="clip-path-13" transform="translate(-19.88 -154.88)"><circle class="cls-1" cx="59.91" cy="221.02" r="7" transform="matrix(0.97, -0.26, 0.26, 0.97, -55.16, 23.04)"/></clipPath><clipPath id="clip-path-15" transform="translate(-19.88 -154.88)"><circle class="cls-1" cx="137.19" cy="200.31" r="7" transform="translate(-47.17 42.33) rotate(-15)"/></clipPath><clipPath id="clip-path-17" transform="translate(-19.88 -154.88)"><circle class="cls-1" cx="138" cy="231" r="10"/></clipPath><clipPath id="clip-path-19" transform="translate(-19.88 -154.88)"><circle class="cls-1" cx="70" cy="183" r="10"/></clipPath></defs><title>payment_money</title><g id="Layer_2" data-name="Layer 2"><g id="Layer_1-2" data-name="Layer 1"><g class="cls-3"><g class="cls-4"><rect class="cls-5" x="27.44" y="171.81" width="141" height="77" transform="translate(-70.97 -122.36) rotate(-15)"/></g></g><g class="cls-6"><g class="cls-4"><rect class="cls-7" x="28.13" y="192.12" width="18.99" height="18.99" transform="matrix(0.97, -0.26, 0.26, 0.97, -70.78, -138.27)"/></g></g><g class="cls-8"><g class="cls-4"><rect class="cls-7" x="136.32" y="163.13" width="18.99" height="18.99" transform="translate(-59.59 -111.25) rotate(-15)"/></g></g><g class="cls-9"><g class="cls-4"><rect class="cls-7" x="40.56" y="238.5" width="18.99" height="18.99" transform="translate(-82.36 -133.47) rotate(-15)"/></g></g><g class="cls-10"><g class="cls-4"><rect class="cls-7" x="148.75" y="209.51" width="18.99" height="18.99" transform="translate(-71.17 -106.46) rotate(-15)"/></g></g><g class="cls-11"><g class="cls-4"><rect class="cls-7" x="75.42" y="181.68" width="46" height="57" transform="translate(-70.92 -122.24) rotate(-15)"/></g></g><g class="cls-12"><g class="cls-4"><rect class="cls-7" x="47.91" y="209.02" width="24" height="24" transform="translate(-75.04 -131.84) rotate(-15)"/></g></g><g class="cls-13"><g class="cls-4"><rect class="cls-7" x="125.19" y="188.31" width="24" height="24" transform="translate(-67.05 -112.54) rotate(-15)"/></g></g><g class="cls-14"><g class="cls-4"><rect class="cls-15" x="103.12" y="61.12" width="30" height="30"/></g></g><g class="cls-16"><g class="cls-4"><rect class="cls-15" x="35.12" y="13.12" width="30" height="30"/></g></g></g></g></svg>